<svg width="58" height="57" viewBox="0 0 58 57" fill="none" xmlns="http://www.w3.org/2000/svg">
<rect x="29.1227" y="1.41421" width="38.146" height="38.3745" rx="9" transform="rotate(44.8546 29.1227 1.41421)" stroke="#222222" stroke-width="2"/>
<path d="M18.8672 26.7168L18.9111 27.3076C19.2855 26.8486 19.7917 26.6191 20.4297 26.6191C21.11 26.6191 21.5771 26.8877 21.8311 27.4248C22.2021 26.8877 22.7311 26.6191 23.418 26.6191C23.9909 26.6191 24.4173 26.7868 24.6973 27.1221C24.9772 27.4541 25.1172 27.9554 25.1172 28.626V32H23.7012V28.6309C23.7012 28.3314 23.6426 28.1133 23.5254 27.9766C23.4082 27.8366 23.2015 27.7666 22.9053 27.7666C22.4821 27.7666 22.1891 27.9684 22.0264 28.3721L22.0312 32H20.6201V28.6357C20.6201 28.3298 20.5599 28.1084 20.4395 27.9717C20.319 27.835 20.1139 27.7666 19.8242 27.7666C19.4238 27.7666 19.1341 27.9326 18.9551 28.2646V32H17.5439V26.7168H18.8672ZM25.9863 29.3096C25.9863 28.7855 26.0872 28.3184 26.2891 27.9082C26.4909 27.498 26.7806 27.1807 27.1582 26.9561C27.5391 26.7314 27.9801 26.6191 28.4814 26.6191C29.1943 26.6191 29.7754 26.8372 30.2246 27.2734C30.6771 27.7096 30.9294 28.3021 30.9814 29.0508L30.9912 29.4121C30.9912 30.2227 30.765 30.8737 30.3125 31.3652C29.86 31.8535 29.2529 32.0977 28.4912 32.0977C27.7295 32.0977 27.1208 31.8535 26.665 31.3652C26.2126 30.877 25.9863 30.2129 25.9863 29.373V29.3096ZM27.3975 29.4121C27.3975 29.9134 27.4919 30.2975 27.6807 30.5645C27.8695 30.8281 28.1396 30.96 28.4912 30.96C28.833 30.96 29.0999 30.8298 29.292 30.5693C29.484 30.3057 29.5801 29.8857 29.5801 29.3096C29.5801 28.818 29.484 28.4372 29.292 28.167C29.0999 27.8968 28.8298 27.7617 28.4814 27.7617C28.1364 27.7617 27.8695 27.8968 27.6807 28.167C27.4919 28.4339 27.3975 28.849 27.3975 29.4121ZM34.8291 28.04C34.637 28.014 34.4678 28.001 34.3213 28.001C33.7874 28.001 33.4375 28.1816 33.2715 28.543V32H31.8604V26.7168H33.1934L33.2324 27.3467C33.5156 26.8617 33.9079 26.6191 34.4092 26.6191C34.5654 26.6191 34.7119 26.6403 34.8486 26.6826L34.8291 28.04ZM37.8467 32.0977C37.0719 32.0977 36.4404 31.86 35.9521 31.3848C35.4671 30.9095 35.2246 30.2764 35.2246 29.4854V29.3486C35.2246 28.818 35.3271 28.3444 35.5322 27.9277C35.7373 27.5078 36.027 27.1855 36.4014 26.9609C36.779 26.7331 37.2087 26.6191 37.6904 26.6191C38.4131 26.6191 38.9811 26.847 39.3945 27.3027C39.8112 27.7585 40.0195 28.4046 40.0195 29.2412V29.8174H36.6553C36.7008 30.1624 36.8376 30.4391 37.0654 30.6475C37.2965 30.8558 37.5879 30.96 37.9395 30.96C38.4831 30.96 38.9079 30.763 39.2139 30.3691L39.9072 31.1455C39.6956 31.445 39.4092 31.6794 39.0479 31.8486C38.6865 32.0146 38.2861 32.0977 37.8467 32.0977ZM37.6855 27.7617C37.4056 27.7617 37.1777 27.8561 37.002 28.0449C36.8294 28.2337 36.7188 28.5039 36.6699 28.8555H38.6328V28.7432C38.6263 28.4307 38.5417 28.1898 38.3789 28.0205C38.2161 27.848 37.985 27.7617 37.6855 27.7617Z" fill="#222222"/>
</svg>
