<svg width="99" height="58" viewBox="0 0 99 58" fill="none" xmlns="http://www.w3.org/2000/svg">
<path d="M40.5274 12.8796C40.4653 12.8699 40.4183 12.8151 40.4176 12.7517C40.4181 12.6807 40.4751 12.621 40.5491 12.622L90.9871 12.5767C91.0559 12.5769 91.1184 12.6341 91.1175 12.7077C91.117 12.7788 91.06 12.8385 90.9861 12.8375L40.5484 12.8802C40.5403 12.8816 40.5325 12.8804 40.5274 12.8796Z" fill="black"/>
<path d="M22.7397 10.5813C22.6777 10.5717 22.628 10.5166 22.6298 10.4536C22.6302 10.3825 22.6896 10.3232 22.761 10.3237L70.4692 10.3871C70.5406 10.3876 70.6007 10.4443 70.5999 10.518C70.5994 10.5891 70.54 10.6484 70.4686 10.6479L22.7608 10.5819C22.7526 10.5833 22.7474 10.5825 22.7397 10.5813Z" fill="black"/>
<rect x="5" y="14.1196" width="91" height="18" rx="2" fill="#2A2A2A"/>
<path d="M17.5586 24.6274C17.4922 25.2173 17.291 25.7407 16.9551 26.1978C16.6191 26.6509 16.1816 27.0005 15.6426 27.2466C15.1035 27.4888 14.5215 27.604 13.8965 27.5923C13.334 27.5806 12.8438 27.4517 12.4258 27.2056C12.0078 26.9556 11.6777 26.5962 11.4355 26.1274C11.1973 25.6548 11.0625 25.1118 11.0313 24.4985C11.0039 24.0181 11.0527 23.4204 11.1777 22.7056C11.3066 21.9907 11.5332 21.356 11.8574 20.8013C12.1855 20.2466 12.5742 19.8071 13.0234 19.4829C13.6563 19.0298 14.3789 18.811 15.1914 18.8267C16.0742 18.8423 16.7734 19.1157 17.2891 19.647C17.8086 20.1743 18.0938 20.9087 18.1445 21.8501L16.4336 21.8442C16.4336 21.3052 16.3262 20.9106 16.1113 20.6606C15.8965 20.4106 15.5625 20.2778 15.1094 20.2622C14.5234 20.2427 14.041 20.4517 13.6621 20.8892C13.2871 21.3267 13.0352 21.9653 12.9063 22.8052C12.7813 23.6216 12.7266 24.2329 12.7422 24.6392C12.7617 25.1548 12.877 25.5356 13.0879 25.7817C13.2988 26.0239 13.5938 26.1509 13.9727 26.1626C14.4961 26.1821 14.9141 26.0591 15.2266 25.7935C15.543 25.5239 15.752 25.1392 15.8535 24.6392L17.5586 24.6274ZM21.707 27.5923C21.1406 27.5806 20.6406 27.4478 20.207 27.1938C19.7773 26.936 19.4355 26.5669 19.1816 26.0864C18.9316 25.6021 18.7871 25.0474 18.748 24.4224C18.7051 23.7817 18.7734 23.0981 18.9531 22.3716C19.1328 21.645 19.4219 21.0063 19.8203 20.4556C20.2188 19.9048 20.6855 19.4927 21.2207 19.2192C21.7598 18.9458 22.3418 18.8149 22.9668 18.8267C23.541 18.8384 24.043 18.9751 24.4727 19.2368C24.9023 19.4946 25.2402 19.8677 25.4863 20.356C25.7324 20.8403 25.873 21.3911 25.9082 22.0083C25.9473 22.6958 25.873 23.4028 25.6855 24.1294C25.498 24.856 25.207 25.4849 24.8125 26.0161C24.418 26.5474 23.9551 26.9458 23.4238 27.2114C22.8965 27.4771 22.3242 27.604 21.707 27.5923ZM24.1387 22.9751L24.1855 22.4185C24.2246 21.7231 24.1309 21.1958 23.9043 20.8364C23.6816 20.4771 23.3418 20.2896 22.8848 20.2739C22.1699 20.2505 21.6016 20.5669 21.1797 21.2231C20.7617 21.8794 20.5254 22.7974 20.4707 23.9771C20.4316 24.6685 20.5234 25.2017 20.7461 25.5767C20.9688 25.9478 21.3145 26.1411 21.7832 26.1567C22.3965 26.1841 22.9043 25.9458 23.3066 25.4419C23.709 24.9341 23.9727 24.2173 24.0977 23.2915L24.1387 22.9751ZM30.0625 18.9438L31.1113 25.1138L34.293 18.9438L36.5781 18.9438L35.0957 27.4751L33.373 27.4751L33.7949 25.0435L34.627 21.2466L31.3574 27.4751L30.1797 27.4751L29.0371 21.0298L28.4863 25.231L28.0938 27.4751L26.377 27.4751L27.8594 18.9438L30.0625 18.9438ZM38.459 27.4751L36.7422 27.4751L38.2188 18.9438L39.9355 18.9438L38.459 27.4751ZM46.832 27.4751L45.168 27.4751L42.7949 21.7856L41.8047 27.4751L40.0879 27.4751L41.5703 18.9438L43.2285 18.9438L45.6074 24.645L46.5977 18.9438L48.3086 18.9438L46.832 27.4751ZM55.2109 26.397C54.9063 26.7837 54.459 27.0825 53.8691 27.2935C53.2832 27.5005 52.6211 27.5981 51.8828 27.5864C51.3008 27.5825 50.7891 27.4556 50.3477 27.2056C49.9063 26.9517 49.5586 26.5884 49.3047 26.1157C49.0508 25.6431 48.9063 25.104 48.8711 24.4985C48.832 23.936 48.8906 23.2759 49.0469 22.5181C49.207 21.7563 49.4785 21.0903 49.8613 20.52C50.248 19.9458 50.7109 19.5181 51.25 19.2368C51.7891 18.9517 52.3867 18.8149 53.043 18.8267C53.9336 18.8423 54.6309 19.0942 55.1348 19.5825C55.6387 20.0669 55.9258 20.7622 55.9961 21.6685L54.3438 21.6626C54.3008 21.186 54.1738 20.8345 53.9629 20.6079C53.752 20.3813 53.4375 20.2603 53.0195 20.2446C52.2969 20.2212 51.7266 20.5396 51.3086 21.1997C50.8945 21.856 50.6582 22.8091 50.5996 24.0591C50.5605 24.7271 50.6621 25.2446 50.9043 25.6118C51.1504 25.979 51.5234 26.1665 52.0234 26.1743C52.6055 26.1899 53.1016 26.0513 53.5117 25.7583L53.7988 24.2876L52.2402 24.2876L52.4688 22.9927L55.7266 22.9927L55.2109 26.397ZM64.0234 25.1958C64.1055 24.731 63.877 24.3755 63.3379 24.1294L62.207 23.6782C60.8945 23.0923 60.2715 22.2856 60.3379 21.2583C60.3652 20.7817 60.5215 20.3599 60.8066 19.9927C61.0918 19.6255 61.4922 19.3384 62.0078 19.1313C62.5234 18.9204 63.0801 18.8188 63.6777 18.8267C64.502 18.8423 65.168 19.0884 65.6758 19.5649C66.1836 20.0376 66.4336 20.6724 66.4258 21.4692L64.7148 21.4692C64.7344 21.0825 64.6484 20.7817 64.457 20.5669C64.2695 20.3521 63.9766 20.2407 63.5781 20.2329C63.1875 20.2251 62.8477 20.3149 62.5586 20.5024C62.2695 20.686 62.0977 20.9399 62.043 21.2642C61.9688 21.6899 62.2539 22.0278 62.8984 22.2778L63.6719 22.5708L64.1172 22.7759C65.2695 23.3462 65.8086 24.147 65.7344 25.1782C65.6992 25.6821 65.5371 26.1177 65.248 26.4849C64.9629 26.8481 64.5723 27.1274 64.0762 27.3228C63.584 27.5181 63.041 27.6099 62.4473 27.5981C61.8418 27.5864 61.3027 27.4595 60.8301 27.2173C60.3574 26.9751 59.998 26.6333 59.752 26.1919C59.5215 25.7817 59.4141 25.313 59.4297 24.7856L61.1465 24.7915C61.0918 25.7173 61.5469 26.188 62.5117 26.2036C62.9297 26.2036 63.2734 26.1118 63.543 25.9282C63.8125 25.7446 63.9727 25.5005 64.0234 25.1958ZM69.9766 27.5923C69.4102 27.5806 68.9102 27.4478 68.4766 27.1938C68.0469 26.936 67.7051 26.5669 67.4512 26.0864C67.2012 25.6021 67.0566 25.0474 67.0176 24.4224C66.9746 23.7817 67.043 23.0981 67.2227 22.3716C67.4023 21.645 67.6914 21.0063 68.0898 20.4556C68.4883 19.9048 68.9551 19.4927 69.4902 19.2192C70.0293 18.9458 70.6113 18.8149 71.2363 18.8267C71.8105 18.8384 72.3125 18.9751 72.7422 19.2368C73.1719 19.4946 73.5098 19.8677 73.7559 20.356C74.002 20.8403 74.1426 21.3911 74.1777 22.0083C74.2168 22.6958 74.1426 23.4028 73.9551 24.1294C73.7676 24.856 73.4766 25.4849 73.082 26.0161C72.6875 26.5474 72.2246 26.9458 71.6934 27.2114C71.166 27.4771 70.5938 27.604 69.9766 27.5923ZM72.4082 22.9751L72.4551 22.4185C72.4941 21.7231 72.4004 21.1958 72.1738 20.8364C71.9512 20.4771 71.6113 20.2896 71.1543 20.2739C70.4395 20.2505 69.8711 20.5669 69.4492 21.2231C69.0313 21.8794 68.7949 22.7974 68.7402 23.9771C68.7012 24.6685 68.793 25.2017 69.0156 25.5767C69.2383 25.9478 69.584 26.1411 70.0527 26.1567C70.666 26.1841 71.1738 25.9458 71.5762 25.4419C71.9785 24.9341 72.2422 24.2173 72.3672 23.2915L72.4082 22.9751ZM78.0742 27.5923C77.5078 27.5806 77.0078 27.4478 76.5742 27.1938C76.1445 26.936 75.8027 26.5669 75.5488 26.0864C75.2988 25.6021 75.1543 25.0474 75.1152 24.4224C75.0723 23.7817 75.1406 23.0981 75.3203 22.3716C75.5 21.645 75.7891 21.0063 76.1875 20.4556C76.5859 19.9048 77.0527 19.4927 77.5879 19.2192C78.127 18.9458 78.709 18.8149 79.334 18.8267C79.9082 18.8384 80.4102 18.9751 80.8398 19.2368C81.2695 19.4946 81.6074 19.8677 81.8535 20.356C82.0996 20.8403 82.2402 21.3911 82.2754 22.0083C82.3145 22.6958 82.2402 23.4028 82.0527 24.1294C81.8652 24.856 81.5742 25.4849 81.1797 26.0161C80.7852 26.5474 80.3223 26.9458 79.791 27.2114C79.2637 27.4771 78.6914 27.604 78.0742 27.5923ZM80.5059 22.9751L80.5527 22.4185C80.5918 21.7231 80.498 21.1958 80.2715 20.8364C80.0488 20.4771 79.709 20.2896 79.252 20.2739C78.5371 20.2505 77.9688 20.5669 77.5469 21.2231C77.1289 21.8794 76.8926 22.7974 76.8379 23.9771C76.7988 24.6685 76.8906 25.2017 77.1133 25.5767C77.3359 25.9478 77.6816 26.1411 78.1504 26.1567C78.7637 26.1841 79.2715 25.9458 79.6738 25.4419C80.0762 24.9341 80.3398 24.2173 80.4648 23.2915L80.5059 22.9751ZM89.4883 27.4751L87.8242 27.4751L85.4512 21.7856L84.4609 27.4751L82.7441 27.4751L84.2266 18.9438L85.8848 18.9438L88.2637 24.645L89.2539 18.9438L90.9648 18.9438L89.4883 27.4751Z" fill="#FFD000"/>
</svg>
