<svg  viewBox="0 0 151 28" fill="none" xmlns="http://www.w3.org/2000/svg">
<path d="M35.5538 7.756H40.3058C40.8578 7.756 41.4098 7.798 41.9618 7.882C42.5258 7.954 43.0298 8.11 43.4738 8.35C43.9178 8.578 44.2778 8.902 44.5538 9.322C44.8298 9.742 44.9678 10.3 44.9678 10.996C44.9678 11.716 44.7638 12.316 44.3558 12.796C43.9598 13.264 43.4318 13.6 42.7718 13.804V13.84C43.1918 13.9 43.5698 14.02 43.9058 14.2C44.2538 14.368 44.5478 14.59 44.7878 14.866C45.0398 15.13 45.2318 15.442 45.3638 15.802C45.4958 16.162 45.5618 16.546 45.5618 16.954C45.5618 17.626 45.4178 18.19 45.1298 18.646C44.8418 19.09 44.4698 19.45 44.0138 19.726C43.5578 20.002 43.0418 20.2 42.4658 20.32C41.9018 20.44 41.3378 20.5 40.7738 20.5H35.5538V7.756ZM38.3618 12.85H40.3958C40.6118 12.85 40.8218 12.826 41.0258 12.778C41.2418 12.73 41.4338 12.652 41.6018 12.544C41.7698 12.436 41.9018 12.292 41.9978 12.112C42.1058 11.932 42.1598 11.716 42.1598 11.464C42.1598 11.2 42.0998 10.984 41.9798 10.816C41.8718 10.636 41.7278 10.498 41.5478 10.402C41.3678 10.306 41.1638 10.24 40.9358 10.204C40.7078 10.156 40.4858 10.132 40.2698 10.132H38.3618V12.85ZM38.3618 18.124H40.8818C41.0978 18.124 41.3138 18.1 41.5298 18.052C41.7578 18.004 41.9618 17.92 42.1418 17.8C42.3218 17.68 42.4658 17.524 42.5738 17.332C42.6938 17.14 42.7538 16.906 42.7538 16.63C42.7538 16.33 42.6758 16.09 42.5198 15.91C42.3758 15.718 42.1898 15.574 41.9618 15.478C41.7338 15.382 41.4878 15.316 41.2238 15.28C40.9598 15.244 40.7138 15.226 40.4858 15.226H38.3618V18.124ZM53.0577 15.064L48.2697 7.756H51.7617L54.4617 12.526L57.3237 7.756H60.6537L55.8657 15.064V20.5H53.0577V15.064ZM62.0057 18.952C62.0057 18.724 62.0477 18.508 62.1317 18.304C62.2157 18.1 62.3297 17.926 62.4737 17.782C62.6297 17.626 62.8097 17.506 63.0137 17.422C63.2177 17.338 63.4337 17.296 63.6617 17.296C63.8897 17.296 64.1057 17.338 64.3097 17.422C64.5137 17.506 64.6877 17.626 64.8317 17.782C64.9877 17.926 65.1077 18.1 65.1917 18.304C65.2757 18.508 65.3177 18.724 65.3177 18.952C65.3177 19.18 65.2757 19.396 65.1917 19.6C65.1077 19.804 64.9877 19.984 64.8317 20.14C64.6877 20.284 64.5137 20.398 64.3097 20.482C64.1057 20.566 63.8897 20.608 63.6617 20.608C63.4337 20.608 63.2177 20.566 63.0137 20.482C62.8097 20.398 62.6297 20.284 62.4737 20.14C62.3297 19.984 62.2157 19.804 62.1317 19.6C62.0477 19.396 62.0057 19.18 62.0057 18.952ZM70.4278 7.756H78.9778V10.348H73.2358V12.94H78.5458V15.532H73.2358V20.5H70.4278V7.756ZM83.3837 11.752H86.0837V20.5H83.3837V11.752ZM83.1677 8.998C83.1677 8.566 83.3177 8.2 83.6177 7.9C83.9297 7.588 84.3017 7.432 84.7337 7.432C85.1657 7.432 85.5317 7.588 85.8317 7.9C86.1437 8.2 86.2997 8.566 86.2997 8.998C86.2997 9.43 86.1437 9.802 85.8317 10.114C85.5317 10.414 85.1657 10.564 84.7337 10.564C84.3017 10.564 83.9297 10.414 83.6177 10.114C83.3177 9.802 83.1677 9.43 83.1677 8.998ZM90.7235 11.752H93.3155V12.94H93.3515C93.4355 12.772 93.5555 12.604 93.7115 12.436C93.8675 12.268 94.0535 12.118 94.2695 11.986C94.4855 11.854 94.7315 11.746 95.0075 11.662C95.2835 11.578 95.5835 11.536 95.9075 11.536C96.5915 11.536 97.1435 11.644 97.5635 11.86C97.9835 12.064 98.3075 12.352 98.5355 12.724C98.7755 13.096 98.9375 13.534 99.0215 14.038C99.1055 14.542 99.1475 15.088 99.1475 15.676V20.5H96.4475V16.216C96.4475 15.964 96.4355 15.706 96.4115 15.442C96.3995 15.166 96.3455 14.914 96.2495 14.686C96.1655 14.458 96.0275 14.272 95.8355 14.128C95.6555 13.984 95.3915 13.912 95.0435 13.912C94.6955 13.912 94.4135 13.978 94.1975 14.11C93.9815 14.23 93.8135 14.398 93.6935 14.614C93.5855 14.818 93.5135 15.052 93.4775 15.316C93.4415 15.58 93.4235 15.856 93.4235 16.144V20.5H90.7235V11.752ZM109.249 19.402H109.213C108.913 19.87 108.511 20.206 108.007 20.41C107.515 20.614 106.993 20.716 106.441 20.716C106.033 20.716 105.637 20.656 105.253 20.536C104.881 20.428 104.551 20.26 104.263 20.032C103.975 19.804 103.747 19.522 103.579 19.186C103.411 18.85 103.327 18.46 103.327 18.016C103.327 17.512 103.417 17.086 103.597 16.738C103.789 16.39 104.041 16.102 104.353 15.874C104.677 15.646 105.043 15.472 105.451 15.352C105.859 15.22 106.279 15.124 106.711 15.064C107.155 15.004 107.593 14.968 108.025 14.956C108.469 14.944 108.877 14.938 109.249 14.938C109.249 14.458 109.075 14.08 108.727 13.804C108.391 13.516 107.989 13.372 107.521 13.372C107.077 13.372 106.669 13.468 106.297 13.66C105.937 13.84 105.613 14.092 105.325 14.416L103.885 12.94C104.389 12.472 104.977 12.124 105.649 11.896C106.321 11.656 107.017 11.536 107.737 11.536C108.529 11.536 109.177 11.638 109.681 11.842C110.197 12.034 110.605 12.322 110.905 12.706C111.217 13.09 111.433 13.564 111.553 14.128C111.673 14.68 111.733 15.322 111.733 16.054V20.5H109.249V19.402ZM108.583 16.666C108.379 16.666 108.121 16.678 107.809 16.702C107.509 16.714 107.215 16.762 106.927 16.846C106.651 16.93 106.411 17.056 106.207 17.224C106.015 17.392 105.919 17.626 105.919 17.926C105.919 18.25 106.057 18.49 106.333 18.646C106.609 18.802 106.897 18.88 107.197 18.88C107.461 18.88 107.713 18.844 107.953 18.772C108.205 18.7 108.427 18.598 108.619 18.466C108.811 18.334 108.961 18.166 109.069 17.962C109.189 17.758 109.249 17.518 109.249 17.242V16.666H108.583ZM116.127 11.752H118.719V12.94H118.755C118.839 12.772 118.959 12.604 119.115 12.436C119.271 12.268 119.457 12.118 119.673 11.986C119.889 11.854 120.135 11.746 120.411 11.662C120.687 11.578 120.987 11.536 121.311 11.536C121.995 11.536 122.547 11.644 122.967 11.86C123.387 12.064 123.711 12.352 123.939 12.724C124.179 13.096 124.341 13.534 124.425 14.038C124.509 14.542 124.551 15.088 124.551 15.676V20.5H121.851V16.216C121.851 15.964 121.839 15.706 121.815 15.442C121.803 15.166 121.749 14.914 121.653 14.686C121.569 14.458 121.431 14.272 121.239 14.128C121.059 13.984 120.795 13.912 120.447 13.912C120.099 13.912 119.817 13.978 119.601 14.11C119.385 14.23 119.217 14.398 119.097 14.614C118.989 14.818 118.917 15.052 118.881 15.316C118.845 15.58 118.827 15.856 118.827 16.144V20.5H116.127V11.752ZM135.085 14.578C134.953 14.386 134.767 14.23 134.527 14.11C134.287 13.978 134.029 13.912 133.753 13.912C133.069 13.912 132.535 14.116 132.151 14.524C131.779 14.932 131.593 15.466 131.593 16.126C131.593 16.786 131.779 17.32 132.151 17.728C132.535 18.136 133.069 18.34 133.753 18.34C134.053 18.34 134.311 18.274 134.527 18.142C134.743 18.01 134.929 17.854 135.085 17.674L136.867 19.546C136.447 19.978 135.949 20.284 135.373 20.464C134.809 20.632 134.269 20.716 133.753 20.716C133.081 20.716 132.445 20.608 131.845 20.392C131.257 20.176 130.741 19.87 130.297 19.474C129.865 19.066 129.523 18.58 129.271 18.016C129.019 17.452 128.893 16.822 128.893 16.126C128.893 15.43 129.019 14.8 129.271 14.236C129.523 13.672 129.865 13.192 130.297 12.796C130.741 12.388 131.257 12.076 131.845 11.86C132.445 11.644 133.081 11.536 133.753 11.536C134.269 11.536 134.809 11.626 135.373 11.806C135.949 11.974 136.447 12.274 136.867 12.706L135.085 14.578ZM148.827 18.988C148.395 19.54 147.849 19.966 147.189 20.266C146.529 20.566 145.845 20.716 145.137 20.716C144.465 20.716 143.829 20.608 143.229 20.392C142.641 20.176 142.125 19.87 141.681 19.474C141.249 19.066 140.907 18.58 140.655 18.016C140.403 17.452 140.277 16.822 140.277 16.126C140.277 15.43 140.403 14.8 140.655 14.236C140.907 13.672 141.249 13.192 141.681 12.796C142.125 12.388 142.641 12.076 143.229 11.86C143.829 11.644 144.465 11.536 145.137 11.536C145.761 11.536 146.325 11.644 146.829 11.86C147.345 12.076 147.777 12.388 148.125 12.796C148.485 13.192 148.761 13.672 148.953 14.236C149.145 14.8 149.241 15.43 149.241 16.126V16.972H142.977C143.085 17.488 143.319 17.902 143.679 18.214C144.039 18.514 144.483 18.664 145.011 18.664C145.455 18.664 145.827 18.568 146.127 18.376C146.439 18.172 146.709 17.914 146.937 17.602L148.827 18.988ZM146.541 15.136C146.553 14.68 146.403 14.29 146.091 13.966C145.779 13.642 145.377 13.48 144.885 13.48C144.585 13.48 144.321 13.528 144.093 13.624C143.865 13.72 143.667 13.846 143.499 14.002C143.343 14.146 143.217 14.32 143.121 14.524C143.037 14.716 142.989 14.92 142.977 15.136H146.541Z" fill="white"/>
<circle cx="12.3605" cy="12.8371" r="11.8371" fill="white"/>
<circle cx="9.61476" cy="7.64601" r="2.44289" fill="#070602"/>
<circle cx="9.61476" cy="12.8374" r="2.44289" fill="#FFCA00"/>
<circle cx="15.1069" cy="12.8374" r="2.44289" fill="#FFCA00"/>
<circle cx="9.61476" cy="18.0249" r="2.44289" fill="#FFCA00"/>
<circle cx="15.1069" cy="18.0249" r="2.44289" fill="#FFCA00"/>
</svg>