<svg width="15" height="15" viewBox="0 0 15 15" fill="none" xmlns="http://www.w3.org/2000/svg">
<path d="M4.02491 1.56513C0.697457 3.53334 -0.405106 7.82676 1.56228 11.1547C3.52969 14.4827 7.82201 15.5849 11.1495 13.6167C14.4769 11.6485 15.5795 7.35515 13.6121 4.02715C11.6447 0.699215 7.35236 -0.403074 4.02491 1.56513ZM8.08621 4.26842C8.7437 3.87951 9.59492 4.0981 9.98367 4.75569L9.48159 5.05268C9.25649 4.6719 8.76379 4.54537 8.38307 4.77057C8.00234 4.99577 7.87579 5.48859 8.10089 5.86937L7.59881 6.16635C7.21007 5.50876 7.42869 4.65735 8.08621 4.26842ZM4.37579 6.46316C5.03328 6.07425 5.88453 6.29282 6.27328 6.95042L5.7712 7.2474C5.54609 6.86662 5.05339 6.74009 4.67264 6.96531C4.29195 7.19049 4.16536 7.68333 4.39047 8.06411L3.88839 8.36109C3.49964 7.7035 3.71829 6.85207 4.37579 6.46316ZM10.259 12.1102C9.05357 12.8233 7.64133 13.0235 6.28182 12.6744L6.42689 12.1094C7.63544 12.4198 8.89106 12.2416 9.96213 11.6081C11.0332 10.9745 11.794 9.95995 12.1044 8.75112L12.6693 8.89617C12.3201 10.256 11.4642 11.3974 10.259 12.1102Z" fill="#0069DE"/>
</svg>
