<svg width="1207" height="325" viewBox="0 0 1207 325" fill="none" xmlns="http://www.w3.org/2000/svg">
<path opacity="0.2" d="M76.8135 175.448L34.0006 217.619L18.5711 226.452L10.5376 229.16L1.5 230.018V325H1202.5L1202.5 162.298L1187.44 163.155L1173.88 165.727L1160.83 172.156L1149.78 179.014L1130.2 192.3L1120.66 197.444L1110.62 201.301L1101.58 201.73L1091.04 195.301L1076.98 177.299L1041.33 110.437L1025.26 97.1502L1013.71 94.5786L1005.18 97.5788L997.145 104.008L976.559 144.297L948.944 210.73L934.384 228.303L924.342 230.018L913.798 225.732L902.25 215.874L872.125 170.442L859.07 155.869L839.991 146.011L827.439 144.725L815.388 148.583L801.832 164.441L776.727 222.731L767.69 235.59L761.163 240.733L754.635 244.59L747.104 246.305L737.564 242.019L728.025 226.16L712.962 168.299L699.908 98.8646L687.857 44.4319L683.339 31.5737L678.82 21.2872L674.301 11.8579L666.268 3.71442L657.732 2L649.699 4.57163L636.142 20.43C617.203 60.2743 603.506 140.011 574.887 164.013C568.862 166.584 567.237 165.841 562.335 167.013L548.276 164.013L535.724 153.297L498.067 90.2926L490.034 81.7205L480.494 74.8628L462.419 70.5767L447.356 74.0056L431.289 83.4349L414.218 102.722L396.143 125.438L381.08 144.725L367.022 155.44L356.478 160.584L342.921 164.441L330.871 173.442L315.055 201.944L307.273 218.874L299.24 230.446L288.696 235.161L277.148 233.447L266.102 226.16L253.047 212.016L237.482 177.299L219.407 126.724L207.859 105.722L197.817 97.1502L186.771 94.15L173.717 95.7271L162.671 100.442L142.587 121.872L119.491 149.731L102.829 163.389L76.8135 175.448Z" fill="url(#paint0_linear)"/>
<path d="M1201.5 161.762C1150.85 162.026 1145.19 192.539 1109.04 201.19C1072.89 209.841 1057.79 98.1038 1016.56 94.3945C975.317 90.6852 960.779 237.342 924.075 229.694C887.372 222.047 884.617 155.833 836.218 145.047C787.82 134.262 791.949 242.923 748.362 245.972C704.774 249.021 705.504 2 660.505 2C615.506 2 610.957 169.9 563.4 167.088C515.843 164.277 514.897 70.7933 463.839 70.7933C412.78 70.7933 396.733 153.806 351.843 161.498C306.953 169.19 318.227 256.878 272.086 229.694C225.945 202.51 232.038 99.1219 188.853 94.3945C145.667 89.6671 131.393 155.873 94.1728 167.088C56.9529 178.304 39.1266 230.024 2.50002 230.024" stroke="black" stroke-width="3" stroke-linecap="round"/>
<circle cx="1201" cy="161.5" r="5.5" fill="black"/>
<defs>
<linearGradient id="paint0_linear" x1="605.652" y1="2.85721" x2="605.652" y2="291.675" gradientUnits="userSpaceOnUse">
<stop stop-color="#646464"/>
<stop offset="1" stop-color="#646464" stop-opacity="0"/>
</linearGradient>
</defs>
</svg>
